<?xml version="1.0" encoding="UTF-8"?>
<svg width="118px" height="87px" viewBox="0 0 118 87" version="1.1" xmlns="http://www.w3.org/2000/svg" xmlns:xlink="http://www.w3.org/1999/xlink">
    <!-- Generator: sketchtool 53.2 (72643) - https://sketchapp.com -->
    <title>8F73D31C-94A5-4742-99D2-B579B1BC4058</title>
    <desc>Created with sketchtool.</desc>
    <g id="Lading-Page" stroke="none" stroke-width="1" fill="none" fill-rule="evenodd">
        <g id="Lading-Page-MDM" transform="translate(-389.000000, -2024.000000)" fill="#9DA6B0" stroke="#9DA6B0" stroke-width="0.5">
            <g id="MDM-In" transform="translate(390.000000, 2024.000000)">
                <path d="M56.7318135,0.700176 C51.9763274,0.700176 48.1006909,4.60686267 48.100666,9.400176 C48.1006737,12.1466152 49.3974844,14.5706788 51.3785533,16.1668427 L50.9777152,16.1668427 C48.1441957,16.1668427 45.6511655,17.5628137 44.077293,19.6898903 C43.5709458,19.5705069 43.0457961,19.4822077 42.4814303,19.4822077 L42.0169057,19.4822077 C43.8676865,18.0964872 45.0887695,15.8998358 45.0887542,13.4065569 C45.0887791,9.22321027 41.7016886,5.81293593 37.5514857,5.81293593 C33.4012808,5.81293593 30.01794,9.22321027 30.0179631,13.4065569 C30.0179477,15.8998358 31.2363589,18.0964872 33.0860656,19.4822077 L32.6177951,19.4822077 C29.5882297,19.4822077 26.9917561,21.2982767 25.796043,23.900176 L18.8881271,23.900176 C16.4685901,23.900176 14.4938844,25.8997743 14.4938844,28.340801 L14.4938844,43.1995252 C13.7637615,42.5638065 12.8241757,42.1648903 11.7891586,42.1648903 C9.5114634,42.1648903 7.63464281,44.0328576 7.63466967,46.3223109 C7.63466276,46.9036604 7.75771243,47.4540224 7.97556988,47.9573367 L3.60005759,51.7031701 C3.36504237,51.6398283 3.12303669,51.5974419 2.86955696,51.5974419 C1.30156631,51.5974419 5.12114754e-05,52.8907027 0,54.4710093 C-0.000109136066,56.0515093 1.30145679,57.3445768 2.86955696,57.3445768 C3.01308124,57.3445768 3.15091856,57.3201607 3.28912663,57.2992653 L7.13643054,63.7034319 C6.97785238,64.0304089 6.87046575,64.3869871 6.87045329,64.772051 C6.87049759,66.1416243 8.00076305,67.2642395 9.35790206,67.2642395 C10.4578923,67.2642395 11.3970816,66.5208573 11.7179816,65.5121561 L14.4938844,64.5870252 L14.4938844,74.2234835 L9.69880246,74.2234835 C9.16917427,74.2235369 8.73983902,74.6562971 8.73978607,75.1901502 C8.73978607,81.0346169 13.4377321,85.7668427 19.2365205,85.7668427 L94.1446906,85.7668427 C99.9434791,85.7668427 104.641426,81.0346169 104.641426,75.1901502 C104.641373,74.6562971 104.212038,74.2235369 103.68241,74.2234835 L98.8873278,74.2234835 L98.8873278,57.9487435 C99.9527989,58.6239911 100.685267,59.7543647 100.846568,61.0790827 L100.846568,61.600176 C100.846621,62.1340291 101.275956,62.5667893 101.805584,62.5668427 L105.64165,62.5668427 C106.171278,62.5667893 106.600613,62.1340291 106.600666,61.600176 L106.600666,56.0644994 C109.199844,55.6409621 111.204664,53.3777364 111.204695,50.6421026 C111.204664,47.9064398 109.199884,45.6363082 106.600666,45.2121561 L106.600666,40.3335093 C106.600613,39.7996562 106.171278,39.366896 105.64165,39.3668427 L101.805584,39.3668427 C101.275956,39.366896 100.846621,39.7996562 100.846568,40.3335093 L100.846568,40.9187951 C100.685635,42.2445243 99.9531901,43.3764445 98.8873278,44.0529101 L98.8873278,28.340801 C98.8873278,25.8997743 96.912621,23.900176 94.493084,23.900176 L87.667584,23.900176 C86.4718709,21.2982767 83.8753973,19.4822077 80.8458319,19.4822077 L79.5571536,19.4822077 C81.4068584,18.0964872 82.6252696,15.8998358 82.6252561,13.4065569 C82.6252792,9.22321027 79.2419365,5.81293593 75.0917336,5.81293593 C70.9415287,5.81293593 67.558186,9.22321027 67.558209,13.4065569 C67.5581956,15.9161454 68.7897127,18.1286231 70.6600287,19.5124161 C70.2161345,19.5353048 69.7920728,19.5939351 69.386334,19.6898903 C67.8124616,17.5628137 65.3194313,16.1668427 62.4859119,16.1668427 L62.0850737,16.1668427 C64.0661427,14.5706788 65.3629534,12.1466152 65.3629611,9.400176 C65.3629361,4.60686267 61.4872996,0.700176 56.7318135,0.700176 Z M56.7318135,2.63350933 C60.4507218,2.63350933 63.4449091,5.651636 63.4449283,9.400176 C63.4449168,13.148716 60.4507276,16.1668427 56.7318135,16.1668427 C53.0128995,16.1668427 50.0187103,13.148716 50.0186988,9.400176 C50.018718,5.651636 53.0129052,2.63350933 56.7318135,2.63350933 Z M37.5514857,7.74626927 C40.6651031,7.74626927 43.1707406,10.2681769 43.1707214,13.4065569 C43.1707386,16.5449369 40.6651031,19.0668427 37.5514857,19.0668427 C34.4378663,19.0668427 31.9359786,16.5449369 31.9359959,13.4065569 C31.9359786,10.2681769 34.4378663,7.74626927 37.5514857,7.74626927 Z M75.0917336,7.74626927 C78.205351,7.74626927 80.7072406,10.2681769 80.7072234,13.4065569 C80.7072406,16.5449369 78.205351,19.0668427 75.0917336,19.0668427 C71.9781142,19.0668427 69.4762246,16.5449369 69.4762418,13.4065569 C69.4762246,10.2681769 71.9781142,7.74626927 75.0917336,7.74626927 Z M50.9777152,18.100176 L62.4859119,18.100176 C64.8345641,18.100176 66.8811933,19.2853983 68.0789262,21.1021284 C68.0789237,21.1033876 68.0789237,21.1046469 68.0789262,21.1059061 C68.1027044,21.1747051 68.1341218,21.2405743 68.1725799,21.3022593 C68.4381603,21.7327643 68.6451697,22.1954535 68.8131721,22.6767395 C68.873502,22.8562785 68.9361813,23.0342979 68.98175,23.2204895 C69.0221648,23.378379 69.0539888,23.5378384 69.0828955,23.7000451 C69.1473146,24.0797691 69.1990266,24.4672343 69.1990266,24.8668427 L69.1990266,37.4335093 L66.4943012,37.4335093 L66.4943012,29.5755669 L64.5762684,29.5755669 L64.5762684,37.4335093 L49.2320061,37.4335093 L49.2320061,29.5755669 L47.3139733,29.5755669 L47.3139733,37.4335093 L44.2646004,37.4335093 L44.2646004,24.8668427 C44.2646004,24.4699216 44.3134124,24.0849176 44.3769856,23.7075986 C44.4084529,23.5309712 44.4479931,23.3580094 44.4931168,23.1865034 C44.5334894,23.0252479 44.5877218,22.8707456 44.6392171,22.7144994 C44.809548,22.2192799 45.0222253,21.7440937 45.2947931,21.3022593 C45.335604,21.2359918 45.3683089,21.1649895 45.3921946,21.090801 C46.5909555,19.2804083 48.633904,18.100176 50.9777152,18.100176 Z M32.6177951,21.4117653 L32.6177951,21.4155411 L42.4814303,21.4155411 C42.6624657,21.4155411 42.839268,21.4655757 43.0171291,21.5061661 C42.6987894,22.2712189 42.5257291,23.1030743 42.4364754,23.9605927 C42.380373,24.2524989 42.3465676,24.5505087 42.3465676,24.8630669 C42.3465676,24.8630669 42.3465676,24.8668427 42.3465676,24.8668427 L42.3465676,37.4297335 L31.969711,37.4297335 L31.969711,31.5089002 L30.0516782,31.5089002 L30.0516782,37.4297335 L27.0023053,37.4297335 L27.0023053,27.072051 C27.0023053,23.9183977 29.4891269,21.4117653 32.6177951,21.4117653 Z M70.9821968,21.4155411 L80.8458319,21.4155411 C83.9745001,21.4155411 86.4613217,23.9221735 86.4613217,27.0758268 L86.4613217,37.4335093 L81.8385635,37.4335093 L81.8385635,31.5089002 L79.9205307,31.5089002 L79.9205307,37.4335093 L71.1170594,37.4335093 L71.1170594,24.8668427 C71.1170594,24.5543232 71.0828973,24.2525144 71.0271516,23.9605927 C70.9378979,23.1030743 70.7648376,22.2712189 70.4464979,21.5061661 C70.6240579,21.4654211 70.8009101,21.4155411 70.9821968,21.4155411 Z M18.8881271,25.8335093 L25.2078955,25.8335093 C25.141006,26.2400255 25.0842725,26.6503311 25.0842725,27.0758268 L25.0842725,29.7303843 L21.207,29.7303843 C20.6773718,29.7304377 20.2480365,30.1631979 20.2479836,30.697051 L20.2479836,69.3637177 C20.2480365,69.8975708 20.6773718,70.330331 21.207,70.3303843 L92.1742131,70.3303843 C92.7038413,70.330331 93.1331765,69.8975708 93.1332295,69.3637177 L93.1332295,57.2766085 L93.3505061,57.2766085 L96.5946783,57.2766085 C96.722893,57.2766085 96.844036,57.3034799 96.969295,57.3143685 L96.969295,74.2234835 L16.411918,74.2234835 L16.411918,28.340801 C16.411918,26.934881 17.5001005,25.8335093 18.8881271,25.8335093 Z M88.2557315,25.8335093 L94.493084,25.8335093 C95.8811106,25.8335093 96.969295,26.934881 96.969295,28.340801 L96.969295,44.6910609 C96.8440897,44.7019611 96.7228374,44.7288228 96.5946783,44.7288228 L93.3505061,44.7288228 L93.1332295,44.7288228 L93.1332295,30.697051 C93.1331765,30.1631979 92.7038413,29.7304377 92.1742131,29.7303843 L88.3793545,29.7303843 L88.3793545,27.0758268 C88.3793545,26.6503311 88.322621,26.2400255 88.2557315,25.8335093 Z M22.1660163,31.6637177 L25.0842725,31.6637177 L25.0842725,38.400176 C25.0843255,38.9340291 25.5136607,39.3667893 26.0432889,39.3668427 L43.305584,39.3668427 L70.158043,39.3668427 L87.4203381,39.3668427 C87.9499663,39.3667893 88.3793016,38.9340291 88.3793545,38.400176 L88.3793545,31.6637177 L91.2151967,31.6637177 L91.2151967,44.7288228 L89.0723935,44.7288228 L88.4168156,44.7288228 C88.3844336,44.7259004 88.3519251,44.7246395 88.319416,44.7250451 L86.813461,44.7250451 L83.0523177,44.7250451 C81.3589249,44.7250451 79.9713893,46.0765591 79.8605922,47.7572077 L78.5419446,47.7572077 C77.6105441,47.7572077 76.8299508,48.5440319 76.8299508,49.4828585 L76.8299508,52.5150193 C76.8299508,53.4538459 77.6105441,54.2406701 78.5419446,54.2406701 L79.8605922,54.2406701 C79.9442587,55.5249989 80.7708694,56.6073233 81.9172316,57.0500451 L79.6995062,66.5581185 C79.6399237,66.8119684 79.6858825,67.0555051 79.8272074,67.234811 C79.9685324,67.4141169 80.1935648,67.5143998 80.4524837,67.5134577 L85.7270738,67.5134577 C85.9851737,67.5135158 86.2561833,67.4128426 86.480355,67.2336328 C86.7045268,67.054423 86.8634538,66.8113918 86.9220984,66.5581185 L89.0836312,57.2766085 L91.2151967,57.2766085 L91.2151967,68.397051 L22.1660163,68.397051 L22.1660163,31.6637177 Z M112.890465,39.1893685 L110.286885,40.7035609 L111.245902,42.3801244 L113.849482,40.8621561 L112.890465,39.1893685 Z M102.817047,41.300176 L104.682633,41.300176 L104.682633,60.6335093 L102.817047,60.6335093 L102.817047,41.300176 Z M11.7891586,44.0982236 C13.0393558,44.0982236 14.0218828,45.0869109 14.0218686,46.3223109 C14.0218828,47.5577109 13.0393558,48.5464002 11.7891586,48.5464002 C10.5389614,48.5464002 9.55268807,47.5577109 9.55270245,46.3223109 C9.55268807,45.0869109 10.5389614,44.0982236 11.7891586,44.0982236 Z M115.228068,44.2115034 L112.321049,44.9969201 L112.815541,46.8660609 L115.722559,46.0806443 L115.228068,44.2115034 Z M100.846568,44.9214002 L100.846568,57.0802534 C99.7306274,56.0155049 98.2450976,55.3432752 96.5946783,55.3432752 L93.3505061,55.3432752 L89.2784324,55.3432752 L89.2784324,46.6621561 L93.3505061,46.6621561 L96.5946783,46.6621561 C98.2450841,46.6621561 99.730635,45.9862009 100.846568,44.9214002 Z M83.0523177,46.6583784 L86.813461,46.6583784 L87.3603996,46.6583784 L87.3603996,55.3394994 L86.813461,55.3394994 L83.0523177,55.3394994 C82.316871,55.3394994 81.7561475,54.7742275 81.7561475,54.0329895 L81.7561475,53.2740034 L81.7561475,48.7238744 L81.7561475,47.9686661 C81.7561475,47.2274261 82.316871,46.6583784 83.0523177,46.6583784 Z M106.69432,47.4589002 C108.135,47.9153602 109.286645,49.0318293 109.286662,50.6421026 C109.286645,52.2521826 108.135,53.3648759 106.69432,53.8215292 L106.69432,50.6421026 L106.69432,47.4589002 Z M25.0393196,48.0668427 C24.7849708,48.0708427 24.5426166,48.1765274 24.3655749,48.3606462 C24.1885333,48.544765 24.0913073,48.7922349 24.0952869,49.0486125 L24.0952869,64.3642395 C24.0509013,64.6469035 24.1330405,64.9348638 24.319592,65.150599 C24.5061436,65.3663342 24.777934,65.4876715 25.0617951,65.4819459 L32.7114508,65.4819459 L48.055713,65.4819459 C48.4015688,65.4868761 48.7232665,65.3037164 48.8976218,65.0026021 C49.071977,64.7014878 49.071977,64.3290706 48.8976218,64.0279563 C48.7232665,63.726842 48.4015688,63.5436823 48.055713,63.5486125 L32.7114508,63.5486125 L27.3581906,63.5486125 L31.767418,59.1042117 L33.0073955,60.3540827 C33.3819202,60.7314398 33.9889814,60.7314398 34.3635061,60.3540827 L37.5215164,57.1708784 L38.7614939,58.4207494 C39.1360186,58.7981065 39.7430798,58.7981065 40.1176045,58.4207494 L47.1229181,51.359551 L47.1229181,52.9152792 C47.1180268,53.2638939 47.299737,53.5881579 47.5984683,53.763904 C47.8971995,53.9396501 48.2666694,53.9396501 48.5654007,53.763904 C48.8641319,53.5881579 49.0458421,53.2638939 49.0409509,52.9152792 L49.0409509,49.0486125 C49.0408979,48.5147594 48.6115627,48.0819992 48.0819345,48.0819459 L44.2458689,48.0819459 C43.9000131,48.0770156 43.5783155,48.2601753 43.4039602,48.5612896 C43.2296049,48.8624039 43.2296049,49.2348211 43.4039602,49.5359354 C43.5783155,49.8370497 43.9000131,50.0202095 44.2458689,50.0152792 L45.744332,50.0152792 L39.4395492,56.3703585 L38.1995717,55.1204895 C37.825047,54.7431324 37.2179858,54.7431324 36.8434611,55.1204895 L33.6854508,58.3036919 L32.4454733,57.0538228 C32.0709486,56.6764657 31.4638875,56.6764657 31.0893628,57.0538228 L26.0133197,62.1703585 L26.0133197,49.0486125 C26.0173807,48.7869976 25.9160677,48.5348951 25.7325196,48.3498828 C25.5489714,48.1648704 25.2988641,48.0627492 25.0393196,48.0668427 Z M53.7985717,48.0668427 C53.5442233,48.0708432 53.3018696,48.1765281 53.1248283,48.3606469 C52.947787,48.5447656 52.8505614,48.7922353 52.8545409,49.0486125 L52.8545409,64.5152792 C52.8545939,65.0491323 53.2839291,65.4818925 53.8135573,65.4819459 L61.4707029,65.4819459 L72.9788996,65.4819459 C73.3247554,65.4868761 73.646453,65.3037164 73.8208083,65.0026021 C73.9951636,64.7014878 73.9951636,64.3290706 73.8208083,64.0279563 C73.646453,63.726842 73.3247554,63.5436823 72.9788996,63.5486125 L70.1318197,63.5486125 L70.1318197,52.8888486 C70.1358812,52.6272333 70.0345685,52.3751304 69.8510203,52.1901176 C69.6674721,52.0051048 69.4173645,51.9029834 69.1578196,51.9070768 C68.9034705,51.9110768 68.661116,52.0167618 68.4840743,52.200881 C68.3070325,52.3850003 68.2098068,52.6324707 68.2137869,52.8888486 L68.2137869,63.5486125 L66.2957541,63.5486125 L66.2957541,50.9555153 C66.2998157,50.6939 66.1985029,50.441797 66.0149547,50.2567842 C65.8314065,50.0717715 65.5812989,49.96965 65.321754,49.9737435 C65.0674049,49.9777435 64.8250504,50.0834285 64.6480087,50.2675477 C64.470967,50.4516669 64.3737413,50.6991374 64.3777213,50.9555153 L64.3777213,63.5486125 L62.4596885,63.5486125 L62.4596885,54.8221819 C62.4637501,54.5605666 62.3624374,54.3084637 62.1788891,54.1234509 C61.9953409,53.9384381 61.7452333,53.8363167 61.4856885,53.8404101 C61.2313394,53.8444101 60.9889848,53.9500951 60.8119431,54.1342144 C60.6349014,54.3183336 60.5376757,54.565804 60.5416558,54.8221819 L60.5416558,63.5486125 L58.623623,63.5486125 L58.623623,58.6888486 C58.6276845,58.4272333 58.5263718,58.1751304 58.3428236,57.9901176 C58.1592753,57.8051048 57.9091678,57.7029834 57.6496229,57.7070768 C57.3952738,57.7110768 57.1529193,57.8167618 56.9758775,58.000881 C56.7988358,58.1850003 56.7016101,58.4324707 56.7055902,58.6888486 L56.7055902,63.5486125 L54.7725737,63.5486125 L54.7725737,49.0486125 C54.7766348,48.7869972 54.6753215,48.5348945 54.491773,48.3498821 C54.3082244,48.1648696 54.0581166,48.0627487 53.7985717,48.0668427 Z M14.4938844,49.4413228 L14.4938844,54.5842911 C14.0037388,54.0148587 13.2877807,53.6478327 12.4896902,53.6478327 C11.517499,53.6478327 10.6659057,54.1898311 10.2007877,54.984551 L5.70914447,54.2217911 C5.66440079,53.7168643 5.49975494,53.2444292 5.22589016,52.8473109 L9.14437111,49.4941859 C9.86679298,50.0983352 10.7831765,50.4797335 11.7891586,50.4797335 C12.8241757,50.4797335 13.7637615,50.0770395 14.4938844,49.4413228 Z M113.182666,49.6716601 L113.182666,51.6049935 L116.19083,51.6049935 L116.19083,49.6716601 L113.182666,49.6716601 Z M78.7479836,49.6905411 L79.8381148,49.6905411 L79.8381148,52.3073367 L78.7479836,52.3073367 L78.7479836,49.6905411 Z M2.86955696,53.5307752 C3.41007893,53.5307752 3.81731776,53.944756 3.81733483,54.4710093 C3.81737108,54.997456 3.41012055,55.4112435 2.86955696,55.4112435 C2.32899318,55.4112435 1.91799634,54.997456 1.91803279,54.4710093 C1.91804986,53.944756 2.3290348,53.5307752 2.86955696,53.5307752 Z M112.815541,54.4143685 L112.321049,56.2835093 L115.228068,57.068926 L115.722559,55.1997851 L112.815541,54.4143685 Z M12.4896902,55.5811661 C12.917086,55.5811661 13.2314606,55.9056935 13.2314293,56.3174935 C13.2314136,56.7292935 12.9170486,57.0500451 12.4896902,57.0500451 C12.0623312,57.0500451 11.7442202,56.7292935 11.7442047,56.3174935 C11.7441734,55.9056935 12.0622938,55.5811661 12.4896902,55.5811661 Z M5.21839775,56.0984835 L9.89734878,56.8952276 C10.0438585,57.5418155 10.4240588,58.1014923 10.946273,58.4773903 L9.25300983,62.2874161 C9.02671629,62.2972993 8.80896433,62.340082 8.60117828,62.4082494 L4.98238976,56.3816859 C5.0645719,56.2905525 5.1481732,56.1995292 5.21839775,56.0984835 Z M83.809041,57.2728327 L86.813461,57.2728327 L87.1431229,57.2728327 L85.1988668,65.6065569 L81.8647868,65.6065569 L83.809041,57.2728327 Z M14.4938844,58.0431443 L14.4938844,62.5517395 L11.4782275,63.5523903 C11.3553117,63.3401064 11.2283133,63.134566 11.0511656,62.9671026 L12.8418289,58.9456185 C13.4977008,58.8560317 14.0775961,58.5263055 14.4938844,58.0431443 Z M111.245902,58.9003069 L110.286885,60.5768685 L112.890465,62.0910609 L113.849482,60.4182752 L111.245902,58.9003069 Z M9.35790206,64.2094201 C9.68757334,64.2094201 9.92730807,64.4563377 9.92731804,64.772051 C9.92730807,65.087571 9.68757315,65.3309061 9.35790206,65.3309061 C9.02823154,65.3309061 8.78849643,65.087571 8.78848607,64.772051 C8.78849662,64.4563377 9.02823154,64.2094201 9.35790206,64.2094201 Z M10.848873,76.1568169 L49.0184754,76.1568169 L49.0184754,78.5961403 C49.0184754,80.5205803 50.5449955,82.1305153 52.4424631,82.1305153 L64.7748136,82.1305153 C66.6722927,82.1305153 68.1988032,80.5205803 68.1988032,78.5961403 L68.1988032,76.1568169 L102.532338,76.1568169 C102.040054,80.4776235 98.5735357,83.8335093 94.1446906,83.8335093 L19.2365205,83.8335093 C14.8076756,83.8335093 11.3411568,80.4776235 10.848873,76.1568169 Z M50.9365081,76.9988744 L66.2807704,76.9988744 L66.2807704,78.5961403 C66.2807704,79.5154403 65.6097256,80.1971819 64.7748136,80.1971819 L52.4424631,80.1971819 C51.607578,80.1971819 50.9365081,79.5154403 50.9365081,78.5961403 L50.9365081,76.9988744 Z" id="Shape"></path>
            </g>
        </g>
    </g>
</svg>