<?xml version="1.0" encoding="UTF-8"?>
<svg width="80px" height="92px" viewBox="0 0 80 92" version="1.1" xmlns="http://www.w3.org/2000/svg" xmlns:xlink="http://www.w3.org/1999/xlink">
    <!-- Generator: sketchtool 53.2 (72643) - https://sketchapp.com -->
    <title>1B2580E3-41FC-4B73-9509-E814C8FE6EB3</title>
    <desc>Created with sketchtool.</desc>
    <g id="Lading-Page" stroke="none" stroke-width="1" fill="none" fill-rule="evenodd">
        <g id="Lading-Page-MDM" transform="translate(-418.000000, -2483.000000)" stroke="#9DA6B0">
            <g id="Push-Notfy" transform="translate(419.000000, 2484.000000)">
                <g id="Group">
                    <g>
                        <path d="M50.5081967,60.8450704 L50.5081967,85.7750704 C50.5081967,87.8666197 48.6246885,89.3661972 46.5148525,89.3661972 L4.47540984,89.3661972 C2.36557377,89.3661972 0.639344262,87.8666197 0.639344262,85.7750704 L0.639344262,4.43661972 C0.639344262,2.34507042 2.36557377,0.633802817 4.47540984,0.633802817 L46.5148525,0.633802817 C48.6246885,0.633802817 50.3483607,2.34507042 50.3458033,4.43661972 L50.408459,16.3723944" id="Path" stroke-width="3.00000012" stroke-linecap="round"></path>
                        <polyline id="Path" stroke-width="2.33731353" stroke-linecap="round" points="43.5521311 58.3450704 43.5521311 72.0349684 7.59540984 72.0349684 7.59540984 12.894609 43.5521311 12.894609 43.5521311 20.013356"></polyline>
                        <ellipse id="Oval" stroke-width="1.27722051" cx="25.6466557" cy="80.4177465" rx="3.48698361" ry="3.45676056"></ellipse>
                        <path d="M23.0163934,4.43661972 L29.4098361,4.43661972" id="Path" stroke-width="1.27722051" stroke-linecap="round"></path>
                    </g>
                    <path d="M73.9836393,31.2730986 C78.2519016,27.5070423 78.874623,21.053662 75.2853443,16.5561972 C71.6960656,12.0587324 65.2195082,11.1714085 60.5395082,14.4215493" id="Path" stroke-width="1.27722051" stroke-linecap="round"></path>
                    <path d="M70.1616393,28.5033803 C72.6921639,26.2711268 73.0617049,22.445493 70.9326885,19.7784507 C68.8049508,17.1101408 64.9637705,16.5828169 62.1890164,18.5121127" id="Path" stroke-width="1.27722051" stroke-linecap="round"></path>
                </g>
                <g id="Group" transform="translate(30.688525, 19.014085)">
                    <path d="M4.47540984,30.4225352 C4.47540984,30.4225352 4.47540984,24.0756338 4.47540984,16.7070423 C4.47540984,9.33971831 10.6770492,3.30971831 17.9016393,3.30971831 C25.1262295,3.30971831 31.3278689,9.26746479 31.3278689,16.5485915 C31.3278689,23.8309859 31.3278689,30.4225352 31.3278689,30.4225352" id="Path" stroke-width="2.02567172"></path>
                    <path d="M36.442623,32.3239437 C36.442623,33.7233803 35.296918,34.8591549 33.8852459,34.8591549 L3.19672131,34.8591549 C1.78504918,34.8591549 0.639344262,33.7233803 0.639344262,32.3239437 L0.639344262,32.3239437 C0.639344262,30.924507 1.78504918,29.7887324 3.19672131,29.7887324 L33.8852459,29.7887324 C35.296918,29.7887324 36.442623,30.924507 36.442623,32.3239437 L36.442623,32.3239437 Z" id="Path" stroke-width="2.02567172"></path>
                    <path d="M14.877541,34.8591549 C14.918459,36.1267606 16.3314098,37.9584507 18.0742623,37.9584507 C19.8171148,37.9584507 21.2300656,36.1267606 21.2722623,34.8591549 L14.877541,34.8591549 Z" id="Path" stroke-width="2.02567172"></path>
                    <path d="M19.6406557,2.94464789 C19.6112459,1.06605634 18.6880328,0.911408451 17.5436066,0.911408451 C16.4017377,0.911408451 15.4759672,1.06478873 15.4478361,2.94464789 L19.6406557,2.94464789 Z" id="Path" stroke-width="1.55820902"></path>
                </g>
            </g>
        </g>
    </g>
</svg>