<?xml version="1.0" encoding="UTF-8"?>
<svg width="100px" height="104px" viewBox="0 0 100 104" version="1.1" xmlns="http://www.w3.org/2000/svg" xmlns:xlink="http://www.w3.org/1999/xlink">
    <!-- Generator: sketchtool 53.2 (72643) - https://sketchapp.com -->
    <title>47F6F29D-8820-4888-AC7F-31D4C3721382</title>
    <desc>Created with sketchtool.</desc>
    <g id="Lading-Page" stroke="none" stroke-width="1" fill="none" fill-rule="evenodd">
        <g id="Lading-Page-MDM" transform="translate(-390.000000, -1386.000000)" fill="#9DA6B0">
            <g id="Geo-Behavior" transform="translate(390.000000, 1386.000000)">
                <path d="M50.1449275,103.133333 C48.8405797,103.133333 47.6811594,103.133333 46.5217391,103.133333 C45.3623188,103.133333 44.3478261,102.122222 44.3478261,100.966667 C44.3478261,99.8111111 45.3623188,98.8 46.5217391,98.8 C47.6811594,98.8 48.8405797,98.8 50.1449275,98.8 C51.3043478,98.8 52.3188406,99.8111111 52.3188406,100.966667 C52.3188406,102.122222 51.3043478,103.133333 50.1449275,103.133333 Z" id="Path"></path>
                <path d="M39.1304348,102.555556 C38.9855072,102.555556 38.9855072,102.555556 38.8405797,102.555556 C36.2318841,102.266667 33.7681159,101.977778 31.4492754,101.544444 C30.2898551,101.255556 29.4202899,100.244444 29.7101449,98.9444444 C30,97.6444444 31.0144928,97.0666667 32.3188406,97.2111111 C34.4927536,97.6444444 36.9565217,97.9333333 39.2753623,98.2222222 C40.4347826,98.3666667 41.3043478,99.3777778 41.1594203,100.533333 C41.3043478,101.688889 40.2898551,102.555556 39.1304348,102.555556 Z" id="Path"></path>
                <path d="M24.9275362,99.8111111 C24.7826087,99.8111111 24.4927536,99.8111111 24.3478261,99.6666667 C21.884058,98.9444444 19.4202899,98.0777778 17.2463768,97.0666667 C16.0869565,96.6333333 15.6521739,95.3333333 16.0869565,94.1777778 C16.5217391,93.0222222 17.826087,92.5888889 18.9855072,93.0222222 C21.0144928,93.8888889 23.1884058,94.7555556 25.5072464,95.4777778 C26.6666667,95.7666667 27.2463768,97.0666667 26.9565217,98.2222222 C26.6666667,99.2333333 25.7971014,99.8111111 24.9275362,99.8111111 Z" id="Path"></path>
                <path d="M11.7391304,93.8888889 C11.3043478,93.8888889 10.8695652,93.7444444 10.4347826,93.4555556 C8.11594203,91.8666667 6.08695652,89.9888889 4.63768116,88.1111111 C3.91304348,87.2444444 4.05797101,85.8 4.92753623,85.0777778 C5.79710145,84.3555556 7.24637681,84.5 7.97101449,85.3666667 C9.27536232,86.9555556 10.8695652,88.4 12.8985507,89.8444444 C13.9130435,90.5666667 14.2028986,91.8666667 13.4782609,92.8777778 C13.0434783,93.4555556 12.4637681,93.8888889 11.7391304,93.8888889 Z" id="Path"></path>
                <path d="M74.4927536,89.5555556 C72.4637681,89.5555556 70.4347826,89.4111111 68.5507246,89.1222222 C67.3913043,88.9777778 66.5217391,87.8222222 66.6666667,86.6666667 C66.8115942,85.5111111 67.9710145,84.6444444 69.1304348,84.7888889 C71.3043478,85.0777778 73.7681159,85.2222222 76.0869565,85.0777778 C77.2463768,85.0777778 78.2608696,85.9444444 78.4057971,87.1 C78.4057971,88.2555556 77.5362319,89.2666667 76.3768116,89.4111111 C75.6521739,89.5555556 75.0724638,89.5555556 74.4927536,89.5555556 Z" id="Path"></path>
                <path d="M83.3333333,88.6888889 C82.3188406,88.6888889 81.4492754,87.9666667 81.1594203,86.9555556 C80.8695652,85.8 81.5942029,84.6444444 82.7536232,84.3555556 C85.0724638,83.7777778 87.2463768,83.0555556 89.1304348,82.1888889 C90.1449275,81.6111111 91.4492754,82.0444444 92.0289855,83.0555556 C92.6086957,84.0666667 92.173913,85.3666667 91.1594203,85.9444444 C88.9855072,87.1 86.5217391,87.9666667 83.7681159,88.5444444 C83.6231884,88.6888889 83.4782609,88.6888889 83.3333333,88.6888889 Z" id="Path"></path>
                <path d="M3.1884058,82.4777778 C2.17391304,82.4777778 1.30434783,81.7555556 1.01449275,80.7444444 C0.724637681,79.7333333 0.724637681,78.5777778 0.724637681,77.5666667 C0.724637681,75.8333333 0.869565217,74.2444444 1.30434783,72.6555556 C1.5942029,71.5 2.75362319,70.7777778 3.91304348,71.0666667 C5.07246377,71.3555556 5.79710145,72.5111111 5.50724638,73.6666667 C5.2173913,74.8222222 5.07246377,76.1222222 5.07246377,77.5666667 C5.07246377,78.2888889 5.2173913,79.1555556 5.36231884,79.8777778 C5.65217391,81.0333333 4.92753623,82.1888889 3.62318841,82.4777778 C3.47826087,82.4777778 3.33333333,82.4777778 3.1884058,82.4777778 Z" id="Path"></path>
                <path d="M95.6521739,81.6111111 C95.2173913,81.6111111 94.7826087,81.4666667 94.4927536,81.3222222 C93.4782609,80.6 93.1884058,79.3 93.9130435,78.2888889 C94.6376812,77.1333333 95.0724638,75.8333333 95.0724638,74.5333333 C95.0724638,73.9555556 95.0724638,73.3777778 95.0724638,72.8 C94.9275362,71.6444444 95.7971014,70.6333333 97.1014493,70.4888889 C98.2608696,70.3444444 99.4202899,71.2111111 99.4202899,72.5111111 C99.4202899,73.2333333 99.5652174,73.9555556 99.5652174,74.6777778 C99.5652174,76.8444444 98.9855072,79.0111111 97.6811594,80.8888889 C96.9565217,81.1777778 96.2318841,81.6111111 95.6521739,81.6111111 Z" id="Path"></path>
                <path d="M6.8115942,68.9 C6.37681159,68.9 5.79710145,68.7555556 5.50724638,68.4666667 C4.63768116,67.7444444 4.49275362,66.3 5.2173913,65.4333333 C6.8115942,63.5555556 8.84057971,61.8222222 11.1594203,60.2333333 C12.173913,59.5111111 13.4782609,59.8 14.2028986,60.8111111 C14.9275362,61.8222222 14.6376812,63.1222222 13.6231884,63.8444444 C11.5942029,65.1444444 10,66.5888889 8.69565217,68.1777778 C8.11594203,68.6111111 7.39130435,68.9 6.8115942,68.9 Z" id="Path"></path>
                <path d="M94.9275362,67.7444444 C94.2028986,67.7444444 93.4782609,67.3111111 93.0434783,66.7333333 C92.0289855,65 90.5797101,63.5555556 88.6956522,62.2555556 C87.6811594,61.5333333 87.3913043,60.2333333 88.115942,59.2222222 C88.8405797,58.2111111 90.1449275,57.9222222 91.1594203,58.6444444 C93.6231884,60.2333333 95.5072464,62.2555556 96.8115942,64.5666667 C97.3913043,65.5777778 97.1014493,66.8777778 96.0869565,67.6 C95.6521739,67.6 95.3623188,67.7444444 94.9275362,67.7444444 Z" id="Path"></path>
                <path d="M18.6956522,60.9555556 C17.826087,60.9555556 16.9565217,60.3777778 16.6666667,59.6555556 C16.2318841,58.5 16.8115942,57.3444444 17.826087,56.9111111 C20,56.0444444 22.4637681,55.3222222 25.0724638,54.6 C26.2318841,54.3111111 27.3913043,55.0333333 27.6811594,56.1888889 C27.9710145,57.3444444 27.2463768,58.5 26.0869565,58.7888889 C23.6231884,59.3666667 21.4492754,60.0888889 19.4202899,60.9555556 C19.2753623,60.8111111 18.9855072,60.9555556 18.6956522,60.9555556 Z" id="Path"></path>
                <path d="M83.3333333,59.5111111 C83.0434783,59.5111111 82.8985507,59.5111111 82.6086957,59.3666667 C80.5797101,58.7888889 78.4057971,58.2111111 75.7971014,57.7777778 C74.6376812,57.6333333 73.7681159,56.4777778 74.057971,55.3222222 C74.2028986,54.1666667 75.3623188,53.3 76.5217391,53.5888889 C79.2753623,54.0222222 81.7391304,54.7444444 83.9130435,55.3222222 C85.0724638,55.7555556 85.6521739,56.9111111 85.3623188,58.0666667 C85.0724638,58.9333333 84.2028986,59.5111111 83.3333333,59.5111111 Z" id="Path"></path>
                <path d="M50.5797101,48.1 C41.3043478,48.1 33.7681159,40.5888889 33.7681159,31.3444444 C33.7681159,22.1 41.3043478,14.4444444 50.5797101,14.4444444 C59.8550725,14.4444444 67.3913043,21.9555556 67.3913043,31.2 C67.3913043,40.4444444 59.8550725,48.1 50.5797101,48.1 Z M50.5797101,18.7777778 C43.6231884,18.7777778 38.115942,24.4111111 38.115942,31.2 C38.115942,37.9888889 43.7681159,43.6222222 50.5797101,43.6222222 C57.3913043,43.6222222 63.0434783,37.9888889 63.0434783,31.2 C63.0434783,24.4111111 57.3913043,18.7777778 50.5797101,18.7777778 Z" id="Shape" fill-rule="nonzero"></path>
                <path d="M30.2898551,13.5777778 C29.7101449,13.5777778 29.1304348,13.4333333 28.6956522,13 C27.826087,12.1333333 27.826087,10.8333333 28.6956522,9.96666667 C31.3043478,7.36666667 34.3478261,5.34444444 37.5362319,3.75555556 C38.6956522,3.32222222 39.8550725,3.75555556 40.4347826,4.76666667 C40.8695652,5.92222222 40.4347826,7.07777778 39.4202899,7.65555556 C36.5217391,8.95555556 34.057971,10.8333333 31.7391304,13 C31.4492754,13.4333333 30.8695652,13.5777778 30.2898551,13.5777778 Z" id="Path"></path>
                <path d="M81.884058,12.7111111 C81.1594203,12.7111111 80.4347826,12.2777778 80,11.5555556 C78.4057971,8.81111111 76.3768116,6.35555556 74.057971,4.33333333 C73.1884058,3.61111111 73.0434783,2.16666667 73.7681159,1.3 C74.4927536,0.433333333 75.942029,0.288888889 76.8115942,1.01111111 C79.5652174,3.32222222 81.884058,6.21111111 83.7681159,9.38888889 C84.3478261,10.4 84.057971,11.7 82.8985507,12.2777778 C82.6086957,12.5666667 82.173913,12.7111111 81.884058,12.7111111 Z" id="Path"></path>
                <path d="M88.6956522,36.8333333 C88.6956522,36.8333333 88.5507246,36.8333333 88.5507246,36.8333333 C87.3913043,36.6888889 86.5217391,35.6777778 86.6666667,34.5222222 C87.2463768,29.3222222 86.3768116,23.9777778 84.4927536,19.2111111 C84.057971,18.0555556 84.6376812,16.9 85.6521739,16.3222222 C86.8115942,15.8888889 87.9710145,16.4666667 88.5507246,17.4777778 C90.7246377,22.9666667 91.5942029,28.8888889 91.1594203,34.8111111 C90.7246377,35.9666667 89.8550725,36.8333333 88.6956522,36.8333333 Z" id="Path"></path>
                <path d="M73.0434783,9.96666667 C67.2463768,4.18888889 59.5652174,1.01111111 51.4492754,0.866666667 C50.2898551,0.866666667 49.2753623,1.87777778 49.2753623,3.03333333 C49.2753623,4.18888889 50.1449275,5.2 51.4492754,5.2 C58.4057971,5.34444444 65.0724638,8.08888889 70,13 C80.4347826,23.4 80.4347826,40.4444444 70.1449275,50.8444444 C70.1449275,50.8444444 70,50.9888889 70,50.9888889 L50.8695652,70.0555556 L31.884058,50.9888889 C31.884058,50.9888889 31.884058,50.8444444 31.7391304,50.8444444 C23.9130435,43.0444444 21.7391304,31.3444444 26.0869565,21.2333333 C26.5217391,20.0777778 26.0869565,18.9222222 24.9275362,18.3444444 C23.7681159,17.9111111 22.6086957,18.3444444 22.0289855,19.5 C16.9565217,31.2 19.4202899,44.6333333 28.4057971,53.7333333 C28.4057971,53.7333333 28.5507246,53.8777778 28.5507246,53.8777778 L39.1304348,64.4222222 C36.0869565,66.4444444 34.2028986,69.3333333 34.2028986,72.6555556 C34.2028986,79.0111111 41.4492754,84.0666667 50.7246377,84.0666667 C52.0289855,84.0666667 53.3333333,83.9222222 54.6376812,83.7777778 C56.3768116,85.0777778 58.4057971,86.2333333 60.8695652,87.1 C61.1594203,87.2444444 61.3043478,87.2444444 61.5942029,87.2444444 C62.4637681,87.2444444 63.3333333,86.6666667 63.6231884,85.8 C64.057971,84.6444444 63.4782609,83.4888889 62.3188406,83.0555556 C61.5942029,82.7666667 60.7246377,82.4777778 60.1449275,82.0444444 C64.4927536,80.0222222 67.2463768,76.5555556 67.2463768,72.5111111 C67.2463768,69.1888889 65.3623188,66.3 62.3188406,64.2777778 L73.0434783,53.5888889 C73.0434783,53.5888889 73.1884058,53.4444444 73.1884058,53.4444444 C85.2173913,41.6 85.0724638,21.9555556 73.0434783,9.96666667 Z M63.0434783,72.8 C63.0434783,76.7 57.3913043,79.8777778 50.8695652,79.8777778 C44.3478261,79.8777778 38.6956522,76.5555556 38.6956522,72.8 C38.6956522,70.7777778 40.1449275,69.0444444 42.4637681,67.7444444 L49.2753623,74.5333333 C49.7101449,74.9666667 50.2898551,75.1111111 50.8695652,75.1111111 C51.4492754,75.1111111 52.0289855,74.9666667 52.4637681,74.5333333 L59.2753623,67.7444444 C61.5942029,69.0444444 63.0434783,70.9222222 63.0434783,72.8 Z" id="Shape" fill-rule="nonzero"></path>
            </g>
        </g>
    </g>
</svg>