<?xml version="1.0" encoding="UTF-8"?>
<svg width="84px" height="76px" viewBox="0 0 84 76" version="1.1" xmlns="http://www.w3.org/2000/svg" xmlns:xlink="http://www.w3.org/1999/xlink">
    <!-- Generator: sketchtool 53.2 (72643) - https://sketchapp.com -->
    <title>C117B630-5999-4403-B95C-1BCBAE81572C</title>
    <desc>Created with sketchtool.</desc>
    <g id="Lading-Page" stroke="none" stroke-width="1" fill="none" fill-rule="evenodd">
        <g id="Lading-Page-MDM" transform="translate(-998.000000, -734.000000)" fill="#9184BE" fill-rule="nonzero">
            <g id="Group-8" transform="translate(890.000000, 684.000000)">
                <g id="Group" transform="translate(108.000000, 50.000000)">
                    <g>
                        <path d="M42.039375,58.9655172 C41.3135625,58.9655172 40.7203125,58.3797931 40.7203125,57.6551724 C40.7203125,56.9305517 41.3004375,56.3448276 42.0249375,56.3448276 L42.039375,56.3448276 C42.763875,56.3448276 43.351875,56.9305517 43.351875,57.6551724 C43.351875,58.3797931 42.763875,58.9655172 42.039375,58.9655172 Z" id="Path"></path>
                        <path d="M82.6875,56.3448276 L1.3741875,56.3448276 C0.648375,56.3448276 0.0616875,55.7591034 0.0616875,55.0344828 C0.0616875,54.3098621 0.648375,53.7241379 1.3741875,53.7241379 L82.6875,53.7241379 C83.4133125,53.7241379 84,54.3098621 84,55.0344828 C84,55.7591034 83.4133125,56.3448276 82.6875,56.3448276 Z" id="Path"></path>
                        <path d="M80.0625,61.5862069 L3.9375,61.5862069 C1.766625,61.5862069 0,59.8224828 0,57.6551724 L0,3.93103448 C0,1.76372414 1.766625,0 3.9375,0 L80.0625,0 C82.233375,0 84,1.76372414 84,3.93103448 L84,57.6551724 C84,59.8224828 82.233375,61.5862069 80.0625,61.5862069 Z M3.9375,2.62068966 C3.213,2.62068966 2.625,3.20903448 2.625,3.93103448 L2.625,57.6551724 C2.625,58.3784828 3.213,58.9655172 3.9375,58.9655172 L80.0625,58.9655172 C80.787,58.9655172 81.375,58.3784828 81.375,57.6551724 L81.375,3.93103448 C81.375,3.20903448 80.787,2.62068966 80.0625,2.62068966 L3.9375,2.62068966 Z" id="Shape"></path>
                        <path d="M30.1888125,72.0689655 C30.0838125,72.0689655 29.9761875,72.0558621 29.869875,72.0296552 C29.166375,71.854069 28.7385,71.1425517 28.914375,70.4415172 L31.539375,59.9587586 C31.7139375,59.2551034 32.426625,58.827931 33.130125,59.0048276 C33.833625,59.1804138 34.2615,59.891931 34.085625,60.5929655 L31.460625,71.0757241 C31.311,71.671931 30.7768125,72.0689655 30.1888125,72.0689655 Z" id="Path"></path>
                        <path d="M53.8111875,72.0689655 C53.2231875,72.0689655 52.689,71.671931 52.539375,71.0757241 L49.914375,60.5929655 C49.7371875,59.891931 50.1650625,59.1804138 50.869875,59.0048276 C51.5694375,58.827931 52.28475,59.2537931 52.460625,59.9587586 L55.085625,70.4415172 C55.2628125,71.1425517 54.8349375,71.854069 54.130125,72.0296552 C54.0238125,72.0558621 53.9161875,72.0689655 53.8111875,72.0689655 Z" id="Path"></path>
                        <path d="M24.9375,74.6896552 C24.2116875,74.6896552 23.625,74.103931 23.625,73.3793103 C23.625,71.212 25.391625,69.4482759 27.5625,69.4482759 C28.2883125,69.4482759 28.875,70.034 28.875,70.7586207 C28.875,71.4832414 28.2883125,72.0689655 27.5625,72.0689655 C26.838,72.0689655 26.25,72.656 26.25,73.3793103 C26.25,74.103931 25.6633125,74.6896552 24.9375,74.6896552 Z" id="Path"></path>
                        <path d="M59.0625,74.6896552 C58.3366875,74.6896552 57.75,74.103931 57.75,73.3793103 C57.75,72.656 57.162,72.0689655 56.4375,72.0689655 C55.7116875,72.0689655 55.125,71.4832414 55.125,70.7586207 C55.125,70.034 55.7116875,69.4482759 56.4375,69.4482759 C58.608375,69.4482759 60.375,71.212 60.375,73.3793103 C60.375,74.103931 59.7883125,74.6896552 59.0625,74.6896552 Z" id="Path"></path>
                        <path d="M56.4375,72.0689655 L27.5625,72.0689655 C26.8366875,72.0689655 26.25,71.4832414 26.25,70.7586207 C26.25,70.034 26.8366875,69.4482759 27.5625,69.4482759 L56.4375,69.4482759 C57.1633125,69.4482759 57.75,70.034 57.75,70.7586207 C57.75,71.4832414 57.1633125,72.0689655 56.4375,72.0689655 Z" id="Path"></path>
                        <path d="M24.9375,76 C24.2116875,76 23.625,75.4142759 23.625,74.6896552 L23.625,73.3793103 C23.625,72.6546897 24.2116875,72.0689655 24.9375,72.0689655 C25.6633125,72.0689655 26.25,72.6546897 26.25,73.3793103 L26.25,74.6896552 C26.25,75.4142759 25.6633125,76 24.9375,76 Z" id="Path"></path>
                        <path d="M59.0625,76 L24.9375,76 C24.2116875,76 23.625,75.4142759 23.625,74.6896552 C23.625,73.9650345 24.2116875,73.3793103 24.9375,73.3793103 L59.0625,73.3793103 C59.7883125,73.3793103 60.375,73.9650345 60.375,74.6896552 C60.375,75.4142759 59.7883125,76 59.0625,76 Z" id="Path"></path>
                        <path d="M59.0625,76 C58.3366875,76 57.75,75.4142759 57.75,74.6896552 L57.75,73.3793103 C57.75,72.6546897 58.3366875,72.0689655 59.0625,72.0689655 C59.7883125,72.0689655 60.375,72.6546897 60.375,73.3793103 L60.375,74.6896552 C60.375,75.4142759 59.7883125,76 59.0625,76 Z" id="Path"></path>
                    </g>
                    <g transform="translate(7.875000, 9.172414)">
                        <path d="M65.627625,28.8275862 L39.377625,28.8275862 C38.6518125,28.8275862 38.065125,28.2405517 38.065125,27.5172414 C38.065125,26.793931 38.6518125,26.2068966 39.377625,26.2068966 L65.627625,26.2068966 C66.3534375,26.2068966 66.940125,26.793931 66.940125,27.5172414 C66.940125,28.2405517 66.3534375,28.8275862 65.627625,28.8275862 Z" id="Path"></path>
                        <path d="M39.377625,28.8275862 C38.6518125,28.8275862 38.065125,28.2405517 38.065125,27.5172414 L38.065125,1.31034483 C38.065125,0.587034483 38.6518125,0 39.377625,0 C40.1034375,0 40.690125,0.587034483 40.690125,1.31034483 L40.690125,27.5172414 C40.690125,28.2405517 40.1034375,28.8275862 39.377625,28.8275862 Z" id="Path"></path>
                        <path d="M44.622375,28.8275862 C43.8965625,28.8275862 43.309875,28.2405517 43.309875,27.5172414 L43.309875,18.3448276 C43.309875,17.6215172 43.8965625,17.0344828 44.622375,17.0344828 C45.3481875,17.0344828 45.934875,17.6215172 45.934875,18.3448276 L45.934875,27.5172414 C45.934875,28.2405517 45.3481875,28.8275862 44.622375,28.8275862 Z" id="Path"></path>
                        <path d="M49.877625,28.8275862 C49.1518125,28.8275862 48.565125,28.2405517 48.565125,27.5172414 L48.565125,10.4827586 C48.565125,9.75944828 49.1518125,9.17241379 49.877625,9.17241379 C50.6034375,9.17241379 51.190125,9.75944828 51.190125,10.4827586 L51.190125,27.5172414 C51.190125,28.2405517 50.6034375,28.8275862 49.877625,28.8275862 Z" id="Path"></path>
                        <path d="M60.372375,28.8275862 C59.6465625,28.8275862 59.059875,28.2405517 59.059875,27.5172414 L59.059875,14.4137931 C59.059875,13.6904828 59.6465625,13.1034483 60.372375,13.1034483 C61.0981875,13.1034483 61.684875,13.6904828 61.684875,14.4137931 L61.684875,27.5172414 C61.684875,28.2405517 61.0981875,28.8275862 60.372375,28.8275862 Z" id="Path"></path>
                        <path d="M55.122375,28.8275862 C54.3965625,28.8275862 53.809875,28.2405517 53.809875,27.5172414 L53.809875,20.9655172 C53.809875,20.2422069 54.3965625,19.6551724 55.122375,19.6551724 C55.8481875,19.6551724 56.434875,20.2422069 56.434875,20.9655172 L56.434875,27.5172414 C56.434875,28.2405517 55.8481875,28.8275862 55.122375,28.8275862 Z" id="Path"></path>
                        <path d="M15.747375,28.8275862 C7.7870625,28.8275862 1.309875,22.3610345 1.309875,14.4137931 C1.309875,6.46655172 7.7870625,0 15.747375,0 C23.7076875,0 30.184875,6.46655172 30.184875,14.4137931 C30.184875,22.3610345 23.7076875,28.8275862 15.747375,28.8275862 Z M15.747375,2.62068966 C9.2334375,2.62068966 3.934875,7.91186207 3.934875,14.4137931 C3.934875,20.9157241 9.2334375,26.2068966 15.747375,26.2068966 C22.2613125,26.2068966 27.559875,20.9157241 27.559875,14.4137931 C27.559875,7.91186207 22.2613125,2.62068966 15.747375,2.62068966 Z" id="Shape"></path>
                        <path d="M15.747375,18.3448276 C13.5765,18.3448276 11.809875,16.5811034 11.809875,14.4137931 C11.809875,12.2464828 13.5765,10.4827586 15.747375,10.4827586 C17.91825,10.4827586 19.684875,12.2464828 19.684875,14.4137931 C19.684875,16.5811034 17.91825,18.3448276 15.747375,18.3448276 Z M15.747375,13.1034483 C15.022875,13.1034483 14.434875,13.6917931 14.434875,14.4137931 C14.434875,15.1357931 15.022875,15.7241379 15.747375,15.7241379 C16.471875,15.7241379 17.059875,15.1357931 17.059875,14.4137931 C17.059875,13.6917931 16.471875,13.1034483 15.747375,13.1034483 Z" id="Shape"></path>
                        <path d="M15.747375,13.1034483 C15.0215625,13.1034483 14.434875,12.5164138 14.434875,11.7931034 L14.434875,1.31034483 C14.434875,0.587034483 15.0215625,0 15.747375,0 C16.4731875,0 17.059875,0.587034483 17.059875,1.31034483 L17.059875,11.7931034 C17.059875,12.5164138 16.4731875,13.1034483 15.747375,13.1034483 Z" id="Path"></path>
                        <path d="M6.468,24.9882759 C6.132,24.9882759 5.796,24.8598621 5.5400625,24.6043448 C5.026875,24.092 5.026875,23.2638621 5.5400625,22.7515172 L12.9635625,15.3402069 C13.47675,14.8278621 14.30625,14.8278621 14.8194375,15.3402069 C15.332625,15.8525517 15.332625,16.6806897 14.8194375,17.1930345 L7.3959375,24.6043448 C7.1386875,24.8611724 6.804,24.9882759 6.468,24.9882759 Z" id="Path"></path>
                        <path d="M65.622375,34.0689655 L39.377625,34.0689655 C38.6518125,34.0689655 38.065125,33.4832414 38.065125,32.7586207 C38.065125,32.034 38.6518125,31.4482759 39.377625,31.4482759 L65.622375,31.4482759 C66.3481875,31.4482759 66.934875,32.034 66.934875,32.7586207 C66.934875,33.4832414 66.3481875,34.0689655 65.622375,34.0689655 Z" id="Path"></path>
                        <path d="M57.747375,38 L47.247375,38 C46.5215625,38 45.934875,37.4142759 45.934875,36.6896552 C45.934875,35.9650345 46.5215625,35.3793103 47.247375,35.3793103 L57.747375,35.3793103 C58.4731875,35.3793103 59.059875,35.9650345 59.059875,36.6896552 C59.059875,37.4142759 58.4731875,38 57.747375,38 Z" id="Path"></path>
                        <path d="M28.86975,34.0689655 L3.9375,34.0689655 C3.2116875,34.0689655 2.625,33.4832414 2.625,32.7586207 C2.625,32.034 3.2116875,31.4482759 3.9375,31.4482759 L28.86975,31.4482759 C29.5955625,31.4482759 30.18225,32.034 30.18225,32.7586207 C30.18225,33.4832414 29.5955625,34.0689655 28.86975,34.0689655 Z" id="Path"></path>
                        <path d="M22.30725,38 L11.80725,38 C11.0814375,38 10.49475,37.4142759 10.49475,36.6896552 C10.49475,35.9650345 11.0814375,35.3793103 11.80725,35.3793103 L22.30725,35.3793103 C23.0330625,35.3793103 23.61975,35.9650345 23.61975,36.6896552 C23.61975,37.4142759 23.0330625,38 22.30725,38 Z" id="Path"></path>
                    </g>
                </g>
            </g>
        </g>
    </g>
</svg>