<?xml version="1.0" standalone="no"?>
<!DOCTYPE svg PUBLIC "-//W3C//DTD SVG 20010904//EN"
 "http://www.w3.org/TR/2001/REC-SVG-20010904/DTD/svg10.dtd">
<svg version="1.0" xmlns="http://www.w3.org/2000/svg"
 width="227.000000pt" height="227.000000pt" viewBox="0 0 227.000000 227.000000"
 preserveAspectRatio="xMidYMid meet">
<metadata>
Created by potrace 1.11, written by Peter Selinger 2001-2013
</metadata>
<g transform="translate(0.000000,227.000000) scale(0.100000,-0.100000)"
fill="#000000" stroke="none">
<path d="M349 1448 c0 -62 -1 -379 0 -409 1 -22 6 -25 41 -27 27 -2 40 1 41
10 1 7 2 97 3 200 l2 186 -39 41 c-21 23 -40 41 -42 41 -3 0 -5 -19 -6 -42z"/>
<path d="M708 1372 l-117 -117 -2 -52 c-2 -29 0 -56 4 -59 4 -4 39 25 78 64
38 40 72 72 73 72 2 0 3 -55 4 -122 0 -68 1 -128 1 -135 1 -7 17 -11 44 -10
l42 2 2 60 c4 157 4 211 3 220 -2 6 -2 13 -2 16 1 7 1 81 1 137 0 23 -3 42 -7
41 -4 0 -60 -53 -124 -117z"/>
<path d="M898 1473 c-2 -10 -2 -29 2 -43 l5 -25 142 0 c79 0 143 -3 143 -6 0
-4 11 -10 25 -13 13 -3 37 -23 52 -43 37 -48 40 -136 7 -180 -43 -57 -75 -67
-224 -69 -74 -1 -140 -2 -146 -3 -11 -1 -11 -52 0 -69 4 -6 67 -10 156 -10
164 1 196 9 255 65 54 49 74 105 70 187 -6 91 -7 96 -16 90 -4 -2 -10 4 -14
15 -9 30 -64 81 -108 102 -35 15 -67 19 -193 19 -136 0 -152 -2 -156 -17z"/>
<path d="M1434 1255 l-1 -235 24 -6 c13 -4 33 -4 46 0 23 5 23 8 22 136 0 71
1 130 3 130 2 0 37 -34 78 -75 41 -42 74 -72 75 -68 0 4 2 31 4 58 l3 50 -117
118 c-65 64 -115 120 -112 122 2 3 -2 5 -10 5 -13 0 -15 -35 -15 -235z"/>
<path d="M1874 1448 l-39 -43 1 -190 c1 -104 2 -192 3 -195 1 -3 17 -7 35 -8
25 -2 37 2 44 15 9 20 10 448 1 458 -3 3 -24 -14 -45 -37z"/>
<path d="M140 919 c-25 -23 -67 -61 -93 -85 l-48 -44 1136 0 1135 0 -33 33
c-118 113 -149 137 -182 137 -19 0 -37 -4 -40 -10 -3 -5 -3 -10 2 -10 12 0
109 -90 98 -91 -55 -6 -565 -2 -565 4 0 5 -5 5 -12 1 -17 -10 -308 -11 -308
-1 0 5 -5 5 -12 1 -17 -11 -468 -11 -468 -1 0 5 -5 5 -12 1 -17 -11 -468 -11
-468 -1 0 5 -6 5 -12 0 -16 -9 -88 -11 -93 -3 -2 4 18 27 45 51 27 24 50 47
50 52 0 4 -17 7 -37 7 -30 0 -47 -9 -83 -41z"/>
</g>
</svg>
